<svg id="undraw_Online_shopping_re_k1sv" xmlns="http://www.w3.org/2000/svg" xmlns:xlink="http://www.w3.org/1999/xlink" width="579" height="448.068" viewBox="0 0 579 448.068">
  <defs>
    <clipPath id="clip-path">
      <rect id="Rectangle_548" data-name="Rectangle 548" width="84" height="84" transform="translate(304 250.067)" fill="#fff" stroke="#707070" stroke-width="1"/>
    </clipPath>
    <clipPath id="clip-path-3">
      <rect id="Rectangle_549" data-name="Rectangle 549" width="84" height="84" transform="translate(449 189.067)" fill="#fff" stroke="#707070" stroke-width="1"/>
    </clipPath>
    <linearGradient id="linear-gradient" x1="-9.497" y1="1" x2="-9.497" gradientUnits="objectBoundingBox">
      <stop offset="0" stop-color="gray" stop-opacity="0.251"/>
      <stop offset="0.54" stop-color="gray" stop-opacity="0.122"/>
      <stop offset="1" stop-color="gray" stop-opacity="0.102"/>
    </linearGradient>
  </defs>
  <path id="Path_1217" data-name="Path 1217" d="M201.831,707.1c18.047,13,41.435,13.654,64.042,12.057,3.157-.223,6.291-.484,9.4-.766.019,0,.043,0,.062-.008.149-.014.3-.028.442-.037l1.917-.18-.15.286-.471.888c.169-.3.338-.588.507-.885.05-.089.106-.178.155-.267C283.59,708,289.4,697.433,290.88,685.8c1.531-12.079-2.773-25.757-13.4-31.693a21.45,21.45,0,0,0-4.4-1.844c-.636-.193-1.28-.35-1.932-.489A22.994,22.994,0,0,0,244.4,681.66c-9.013-9.242-7.332-24.235-4.223-36.766s6.886-26.473.55-37.728c-3.522-6.264-9.716-10.151-16.666-11.717-.213-.046-.426-.092-.64-.132a33.558,33.558,0,0,0-24.109,4.224c-13.29,8.375-20.117,24.255-22.332,39.81C173.413,664.384,181.312,692.319,201.831,707.1Z" transform="translate(-176.154 -271.816)" fill="#f2f2f2"/>
  <path id="Path_1218" data-name="Path 1218" d="M222.065,667.28A57.048,57.048,0,0,0,226,683.355a49.533,49.533,0,0,0,7.691,12.562,63.464,63.464,0,0,0,24.378,17.578,91.342,91.342,0,0,0,22.21,5.968c3.157-.223,6.291-.484,9.4-.766.019,0,.043,0,.062-.008.149-.014.3-.028.442-.037l1.917-.18-.15.286-.471.888c.169-.3.338-.588.507-.885.05-.089.106-.178.155-.267a50.045,50.045,0,0,1-4.659-65.931c-.636-.193-1.28-.35-1.932-.489a52.789,52.789,0,0,0-4.816,7.977,51.734,51.734,0,0,0-4.463,32.184,52.892,52.892,0,0,0,13.4,26.382c-.6-.042-1.212-.092-1.808-.146-11.285-.956-22.547-3.382-32.782-8.351a59.041,59.041,0,0,1-22.118-18.148c-6.2-8.549-8.93-18.833-9.4-29.284a123.583,123.583,0,0,1,3.508-33.457,140.433,140.433,0,0,1,11.8-32.143,1.01,1.01,0,0,0-.4-1.333.859.859,0,0,0-.64-.132.748.748,0,0,0-.494.423c-.645,1.259-1.278,2.519-1.887,3.793a142.025,142.025,0,0,0-11.118,33.347C222.089,644.311,220.892,655.95,222.065,667.28Z" transform="translate(-190.561 -272.119)" fill="#fff"/>
  <path id="Path_1219" data-name="Path 1219" d="M862.942,507.229H564.458a11.624,11.624,0,0,1-11.611-11.612V133.611A11.625,11.625,0,0,1,564.458,122H862.942a11.625,11.625,0,0,1,11.612,11.612V495.617a11.625,11.625,0,0,1-11.612,11.612ZM564.458,123.366a10.257,10.257,0,0,0-10.245,10.245V495.617a10.257,10.257,0,0,0,10.245,10.245H862.942a10.257,10.257,0,0,0,10.245-10.245V133.611a10.257,10.257,0,0,0-10.245-10.245Z" transform="translate(-295.554 -122)" fill="#3f3d56"/>
  <rect id="Rectangle_541" data-name="Rectangle 541" width="320.341" height="1.366" transform="translate(257.976 28.407)" fill="#3f3d56"/>
  <circle id="Ellipse_101" data-name="Ellipse 101" cx="5" cy="5" r="5" transform="translate(268 10.067)" fill="#f44336"/>
  <circle id="Ellipse_102" data-name="Ellipse 102" cx="5" cy="5" r="5" transform="translate(285 10.067)" fill="#ffc107"/>
  <circle id="Ellipse_103" data-name="Ellipse 103" cx="5" cy="5" r="5" transform="translate(302 10.067)" fill="#8bc34a"/>
  <path id="Path_1220" data-name="Path 1220" d="M836.091,234.759H622.986a8.879,8.879,0,1,1,0-17.759H836.091a8.879,8.879,0,1,1,0,17.759ZM622.986,218.366a7.513,7.513,0,1,0,0,15.027H836.091a7.513,7.513,0,1,0,0-15.027Z" transform="translate(-314.971 -152.112)" fill="#3f3d56"/>
  <circle id="Ellipse_104" data-name="Ellipse 104" cx="20.491" cy="20.491" r="20.491" transform="translate(111.088 200.535)" fill="#2f2e41"/>
  <circle id="Ellipse_105" data-name="Ellipse 105" cx="16.776" cy="16.776" r="16.776" transform="translate(116.524 208.004)" fill="#ffb8b8"/>
  <path id="Path_1227" data-name="Path 1227" d="M441.566,522.273a7.189,7.189,0,0,0-.732.863l-33.853-1.2-3.872-7.261-11.722,4.411,5.605,13.521a5.464,5.464,0,0,0,5.644,3.339l38.307-4.206a7.17,7.17,0,1,0,.622-9.471Z" transform="translate(-244.376 -246.467)" fill="#ffb8b8"/>
  <path id="Path_1228" data-name="Path 1228" d="M381.354,516.349a3.286,3.286,0,0,1-1.8-2.061l-4.715-15.825a9.137,9.137,0,1,1,16.535-7.781L400.5,504.5a3.29,3.29,0,0,1-1.353,4.795l-15.056,7.031A3.286,3.286,0,0,1,381.354,516.349Z" transform="translate(-238.853 -237.197)" fill="#ccc"/>
  <path id="Path_1229" data-name="Path 1229" d="M250.28,628.02l7.355-4-11.943-30.273-10.855,5.909Z" transform="translate(-74.436 -188.199)" fill="#ffb8b8"/>
  <path id="Path_1230" data-name="Path 1230" d="M428.94,759.653l14.484-7.885h0a10.509,10.509,0,0,1,14.255,4.206l.163.3-23.715,12.909Z" transform="translate(-256.279 -321.211)" fill="#2f2e41"/>
  <path id="Path_1231" data-name="Path 1231" d="M138.958,628.986h8.373l3.984-32.3H138.956Z" transform="translate(-44.045 -189.132)" fill="#ffb8b8"/>
  <path id="Path_1232" data-name="Path 1232" d="M311.985,761.972h16.492a10.509,10.509,0,0,1,10.509,10.51v.341h-27Z" transform="translate(-219.208 -324.852)" fill="#2f2e41"/>
  <path id="Path_1233" data-name="Path 1233" d="M366.273,553.56l2.732,32.785,30.476,91.427a2.732,2.732,0,0,1-1.959,3.522l-9.341,2.224a2.732,2.732,0,0,1-3.072-1.428L346.147,604.8a1.366,1.366,0,0,0-2.554.322l-17.147,78.112a2.732,2.732,0,0,1-2.669,2.146h-8.689a2.727,2.727,0,0,1-2.73-2.769c.8-54.162-1.831-115.878,19.081-125.641l3.415-8.879Z" transform="translate(-219.326 -257.06)" fill="#2f2e41"/>
  <path id="Path_1234" data-name="Path 1234" d="M342.086,530.219l-3.521-21.3a21.09,21.09,0,0,1,6.672-19.129,20.738,20.738,0,0,1,19.351-4.73c.2.053.4.109.6.165a21.026,21.026,0,0,1,15.182,18.678c.672,9.248.071,22.665-6.611,34.063l-.13.221Z" transform="translate(-227.542 -236.858)" fill="#ccc"/>
  <path id="Path_1235" data-name="Path 1235" d="M380.566,433.869a22.816,22.816,0,0,1-13.04,4.03,13.982,13.982,0,0,0,5.542,2.28,46.008,46.008,0,0,1-18.793.106,12.162,12.162,0,0,1-3.934-1.351,4.979,4.979,0,0,1-2.428-3.248c-.412-2.355,1.423-4.5,3.33-5.938a24.567,24.567,0,0,1,20.644-4.125A11.305,11.305,0,0,1,378,429.078c1.5,1.852,1.942,4.707.514,6.614Z" transform="translate(-230.578 -218.006)" fill="#2f2e41"/>
  <path id="Path_1236" data-name="Path 1236" d="M335.815,407.83c1.945-7.852-5.025-16.576-13.113-16.412-8.206.166-14.244,7.581-18.395,14.661s-8.276,15.106-15.9,18.155a16.412,16.412,0,0,1-22.5-15.637c-1.023,8.6.394,17.908,5.941,24.561s15.869,9.652,23.288,5.18c4.237-2.554,6.946-6.992,9.178-11.407s4.22-9.07,7.6-12.679,8.615-6.005,13.323-4.487c1.869.6,3.546,1.778,5.477,2.135s4.362-.56,4.626-2.506Z" transform="translate(-204.506 -207.397)" fill="#2f2e41"/>
  <path id="Path_1237" data-name="Path 1237" d="M308.387,588.472a7.338,7.338,0,0,1,1.873-11.094l14.552-65.227,14.762,6.059-18.946,62.211a7.377,7.377,0,0,1-12.241,8.052Z" transform="translate(-217.511 -245.666)" fill="#ffb8b8"/>
  <path id="Path_1238" data-name="Path 1238" d="M324.612,513.957a3.286,3.286,0,0,1-.23-2.73l5.6-15.536a9.137,9.137,0,0,1,17.926,3.55l-.85,16.544a3.29,3.29,0,0,1-3.934,3.056l-16.291-3.275a3.286,3.286,0,0,1-2.217-1.609Z" transform="translate(-223.076 -238.115)" fill="#ccc"/>
  <path id="Path_22" data-name="Path 22" d="M487.241,509.1l-.242-.033.913-6.641a3.88,3.88,0,0,0-3.315-4.372l-14.07-1.934a3.88,3.88,0,0,0-4.372,3.315l-5.008,36.433a3.88,3.88,0,0,0,3.315,4.372l14.07,1.934a3.88,3.88,0,0,0,4.372-3.315l3.445-25.065.242.033Z" transform="translate(-266.476 -240.573)" fill="#3f3d56"/>
  <path id="Path_23" data-name="Path 23" d="M484.92,500.948l-1.752-.241a1.313,1.313,0,0,1-1.451,1.626l-7.689-1.057a1.313,1.313,0,0,1-.958-1.958l-1.636-.225a2.764,2.764,0,0,0-3.114,2.362l-4.77,34.7a2.764,2.764,0,0,0,2.362,3.114l13.485,1.854a2.764,2.764,0,0,0,3.114-2.362h0l4.77-34.7a2.764,2.764,0,0,0-2.362-3.114Z" transform="translate(-267.241 -241.519)" fill="#fff"/>
  <path id="Path_1333" data-name="Path 1333" d="M8,0A8,8,0,1,1,0,8,8,8,0,0,1,8,0Z" transform="translate(200 273.068)" fill="#2196f3"/>
  <path id="Path_1239" data-name="Path 1239" d="M478.573,534.544a.779.779,0,0,1-.469-.156l-.008-.006-1.766-1.352a.784.784,0,1,1,.954-1.245l1.144.877,2.7-3.525a.784.784,0,0,1,1.1-.145l-.017.023.017-.022a.785.785,0,0,1,.145,1.1l-3.179,4.146A.784.784,0,0,1,478.573,534.544Z" transform="translate(-271.203 -250.953)" fill="#fff"/>
  <path id="Path_1240" data-name="Path 1240" d="M461.146,777.366H200.911a.683.683,0,0,1,0-1.366H461.146a.683.683,0,0,1,0,1.366Z" transform="translate(-183.785 -329.298)" fill="#3f3d56"/>
  <g id="Group_2363" data-name="Group 2363">
    <path id="Path_1222" data-name="Path 1222" d="M699.471,571.209H615.458A11.625,11.625,0,0,1,603.846,559.6V490.611A11.625,11.625,0,0,1,615.458,479h84.013a11.625,11.625,0,0,1,11.611,11.612V559.6A11.625,11.625,0,0,1,699.471,571.209Zm-84.013-90.843a10.257,10.257,0,0,0-10.245,10.245V559.6a10.257,10.257,0,0,0,10.245,10.245h84.013A10.257,10.257,0,0,0,709.716,559.6V490.611a10.257,10.257,0,0,0-10.245-10.245Z" transform="translate(-311.847 -234.933)" fill="#3f3d56"/>
    <g id="Mask_Group_22" data-name="Mask Group 22" transform="translate(0 -2)" clip-path="url(#clip-path)">
      <g id="Group_2360" data-name="Group 2360" transform="translate(266.951 164.597)">
        <path id="Path_1271" data-name="Path 1271" d="M347.162,390.265c-2.33.885-7.749.984-10.152.98h-1.186l-1.544-3.139,1.544-2.62s1.411-.381,3.295-.728c2.776-.5,6.575-.892,8.39.233C350.537,386.833,350.19,389.094,347.162,390.265Z" transform="translate(-233.67 -233.614)" fill="#a0616a"/>
        <path id="Path_1272" data-name="Path 1272" d="M337.01,392h-1.186l-1.544-3.139,1.544-2.62s1.411-.381,3.295-.728C337.605,386.627,333.925,389.057,337.01,392Z" transform="translate(-233.67 -234.385)" opacity="0.1"/>
        <path id="Path_1273" data-name="Path 1273" d="M270.337,300.1l.683-.782s3.5,5.549,3.875,7.627.835,4.5.835,4.5.892,2.723,1.468,3.928a12.739,12.739,0,0,1,1.144,2.879,2.511,2.511,0,0,0,.889,2.406c1.1.732,1.361,2.723,1.361,2.723s3.981,3.875,6.075,3.981,8.115,1.144,7.905,2.2,2.513,1.678,3.611,1.937-7.066,3.406-2.288,7.436c0,0-3.051.629-3.352,1.361s-3.5-.419-3.5-.419a3.325,3.325,0,0,0-3.051-1.728c-2.368-.1-3.558-1.144-3.558-1.308a13.181,13.181,0,0,0-3.665-1.834c-1.308-.366-3.051-.522-3.093-.889s-7.852-34.036-7.852-34.036Z" transform="translate(-192.554 -181.064)" fill="#192534"/>
        <path id="Path_1274" data-name="Path 1274" d="M270.337,300.1l.683-.782s3.5,5.549,3.875,7.627.835,4.5.835,4.5.892,2.723,1.468,3.928a12.739,12.739,0,0,1,1.144,2.879,2.511,2.511,0,0,0,.889,2.406c1.1.732,1.361,2.723,1.361,2.723s3.981,3.875,6.075,3.981,8.115,1.144,7.905,2.2,2.513,1.678,3.611,1.937-7.066,3.406-2.288,7.436c0,0-3.051.629-3.352,1.361s-3.5-.419-3.5-.419a3.325,3.325,0,0,0-3.051-1.728c-2.368-.1-3.558-1.144-3.558-1.308a13.181,13.181,0,0,0-3.665-1.834c-1.308-.366-3.051-.522-3.093-.889s-7.852-34.036-7.852-34.036Z" transform="translate(-192.554 -181.064)" opacity="0.05"/>
        <path id="Path_1275" data-name="Path 1275" d="M249.026,463.259H232.849c-.835-1.5-1.525-3-1.38-3.5a6.737,6.737,0,0,0-.16-2.982s-.5-.869-1.114-1.907c-.744-1.274-1.644-2.8-1.949-3.28a42.861,42.861,0,0,1-1.831-4.668c-.221-.629-.381-1.064-.381-1.064s-.629,11.544-1.178,12.722a26.361,26.361,0,0,0-.763,4.683h-12.7a4.521,4.521,0,0,0-.339-1.068c-.587-1.144.587-5.068.587-5.068s-1.144-7.627-1.1-8.794a25.974,25.974,0,0,0-.98-4.675s-1.022-1.8-.786-2.357-.786-1.96-.511-2.589-.236-2.551-.763-3.692a22.664,22.664,0,0,1-.839-3.619c-.031-.16-.057-.317-.084-.469-.194-1.144-.332-2.078-.332-2.078l2.067-1.666.088-.072,4.325-3.482,5.892-1.544.358-.1,9.915-2.6,4.244-1.365,1.19-.381.679-.221,5.93,9.343s.507.808,1.007,1.8l.149.3a6.269,6.269,0,0,1,.808,2.727,3.756,3.756,0,0,0,.549,2.444s3.535,11.193,3.455,14.415,1.258,10.3,1.258,10.3A18.847,18.847,0,0,1,249.026,463.259Z" transform="translate(-154.464 -254.126)" fill="#192534"/>
        <path id="Path_1276" data-name="Path 1276" d="M230.339,270.782c-.252-.1-17.332-7.158-14.98-8.558,1.4-.835,3.112-4.359,4.29-7.12.824-1.93,1.38-3.486,1.38-3.486s13.71-2.433,8.8,5.972a15.469,15.469,0,0,0-1.728,4.138A9.255,9.255,0,0,0,230.339,270.782Z" transform="translate(-159.962 -151.351)" fill="#a0616a"/>
        <path id="Path_1277" data-name="Path 1277" d="M237.132,257.591a15.467,15.467,0,0,0-1.727,4.138,9.58,9.58,0,0,1-8.1-5.69,9.25,9.25,0,0,1-.358-.934c.824-1.93,1.38-3.486,1.38-3.486S242.04,249.186,237.132,257.591Z" transform="translate(-167.27 -151.352)" opacity="0.1"/>
        <path id="Path_1278" data-name="Path 1278" d="M244.93,237.243a9.576,9.576,0,1,1-.381-2.669A9.576,9.576,0,0,1,244.93,237.243Z" transform="translate(-166.544 -136.739)" fill="#a0616a"/>
        <path id="Path_1279" data-name="Path 1279" d="M242.118,428.9a5.882,5.882,0,0,0-1.392,2.647s-4.71,3.222-4.4,1.178-2.433-10.3-2.433-10.3l.313,11.258s-15.079-.706-16.177-1.8-7.539-3.222-7.539-3.222-1.972,1.583-3.787,2.784c-.24-1.354-.416-2.547-.416-2.547l6.483-5.225,16.177-4.241,6.1-1.964,5.93,9.347Q241.6,427.831,242.118,428.9Z" transform="translate(-154.488 -254.157)" opacity="0.1"/>
        <path id="Path_1280" data-name="Path 1280" d="M238.621,336.794a5.272,5.272,0,0,0-1.728,2.906s-4.714,3.222-4.4,1.178-2.433-10.3-2.433-10.3l.313,11.231s-15.079-.706-16.177-1.8-7.539-3.222-7.539-3.222-5.575,4.477-6.6,4.084,1.8-8.008,1.8-8.008l2.906-44.618s-.782-13.271.381-13.729a1.622,1.622,0,0,0,.5-.309,5.068,5.068,0,0,0,1.075-3.3c.08-1.415,1.964-.709,1.964-.709l-1.1,1.415,9.732,5.919.084.05a11.178,11.178,0,0,1,1.171-.53,4.234,4.234,0,0,1,2.757-.332,2.647,2.647,0,0,1,1.03.927,11.627,11.627,0,0,1,1.327,2.669l3.531,5.968s1.808,7.932,1.808,8.249.549,7.539,1.178,8.325,1.258,4.71,1.022,5.888a32.176,32.176,0,0,0,.381,5.575c2.589,2.12,3.924,9.347,3.924,9.347s4.084,8.089,4.4,9.034S239.876,336.008,238.621,336.794Z" transform="translate(-150.496 -162.937)" fill="#f2f2f2"/>
        <path id="Path_1281" data-name="Path 1281" d="M226.773,278.351a20.1,20.1,0,0,1-3.711,3.4L215.1,275.03a5.068,5.068,0,0,0,1.075-3.3c.08-1.415,1.964-.705,1.964-.705l-.229.294a1.266,1.266,0,0,0,.343,1.857Z" transform="translate(-159.939 -163.447)" opacity="0.1"/>
        <path id="Path_1282" data-name="Path 1282" d="M226.773,277.528a20.247,20.247,0,0,1-3.711,3.4l-7.963-6.723a5.068,5.068,0,0,0,1.075-3.3c.08-1.415,1.964-.709,1.964-.709l-.229.294a1.266,1.266,0,0,0,.343,1.857Z" transform="translate(-159.939 -162.937)" fill="#f2f2f2"/>
        <path id="Path_1283" data-name="Path 1283" d="M249.062,290.486c-1.03,1.232-2.483,2.624-2.418,1.907a6.039,6.039,0,0,0-1.464-2.933,4.336,4.336,0,0,1,2.853.08A2.646,2.646,0,0,1,249.062,290.486Z" transform="translate(-178.548 -174.839)" opacity="0.1"/>
        <path id="Path_1284" data-name="Path 1284" d="M249.627,289.535c-1.026,1.228-2.483,2.624-2.418,1.926s-.763-1.83-1.369-2.521a4.237,4.237,0,0,1,2.757-.336A2.635,2.635,0,0,1,249.627,289.535Z" transform="translate(-178.956 -174.356)" fill="#f2f2f2"/>
        <circle id="Ellipse_117" data-name="Ellipse 117" cx="0.629" cy="0.629" r="0.629" transform="translate(67.467 120.453)" fill="#192534"/>
        <circle id="Ellipse_118" data-name="Ellipse 118" cx="0.629" cy="0.629" r="0.629" transform="translate(72.23 137.415)" fill="#192534"/>
        <circle id="Ellipse_119" data-name="Ellipse 119" cx="0.629" cy="0.629" r="0.629" transform="translate(77.627 154.588)" fill="#192534"/>
        <circle id="Ellipse_120" data-name="Ellipse 120" cx="0.629" cy="0.629" r="0.629" transform="translate(77.783 173.281)" fill="#192534"/>
        <circle id="Ellipse_121" data-name="Ellipse 121" cx="0.629" cy="0.629" r="0.629" transform="translate(70.244 128.461)" fill="#192534"/>
        <circle id="Ellipse_122" data-name="Ellipse 122" cx="0.629" cy="0.629" r="0.629" transform="translate(74.484 145.897)" fill="#192534"/>
        <circle id="Ellipse_123" data-name="Ellipse 123" cx="0.629" cy="0.629" r="0.629" transform="translate(78.622 163.019)" fill="#192534"/>
        <circle id="Ellipse_124" data-name="Ellipse 124" cx="0.629" cy="0.629" r="0.629" transform="translate(77.676 175.375)" fill="#192534"/>
        <path id="Path_1285" data-name="Path 1285" d="M194.342,281.556s.1-.946-1.258.679a16.727,16.727,0,0,1-3.924,3.051s-5.812,4.084-6.128,5.972-2.2,10.052-1.205,12.775,8.588,15.757,8.588,15.757a7.055,7.055,0,0,0-1.525,5.133c.465,2.776,1.049,6.6.786,7.432s.313,2.933-.576,3.665-1.834,1.991.942,3.669c0,0,.522,1.411.053,1.728s6.964,3.558,9.9,1.83,8.218-15.552,8.325-18.641-1.617-13.305-2.574-15.716-3.772-11.78-4.958-13.874S194.342,281.556,194.342,281.556Z" transform="translate(-139.177 -169.905)" opacity="0.1"/>
        <path id="Path_1286" data-name="Path 1286" d="M193.517,281.556s.107-.946-1.255.679a16.713,16.713,0,0,1-3.928,3.051s-5.812,4.084-6.125,5.972-2.2,10.052-1.205,12.775,8.592,15.75,8.592,15.75a7.055,7.055,0,0,0-1.525,5.133c.465,2.776,1.045,6.6.786,7.433s.313,2.933-.576,3.665-1.834,1.991.942,3.669c0,0,.522,1.411.05,1.727s6.964,3.558,9.915,1.831,8.222-15.552,8.325-18.641-1.621-13.3-2.563-15.708-3.772-11.78-4.977-13.874S193.517,281.556,193.517,281.556Z" transform="translate(-138.668 -169.905)" fill="#192534"/>
        <path id="Path_1287" data-name="Path 1287" d="M208.79,305.36s4.5,4.958,4.347,8.272C213.137,313.632,213.191,308.293,208.79,305.36Z" transform="translate(-156.035 -184.8)" opacity="0.1"/>
        <path id="Path_1288" data-name="Path 1288" d="M225.13,326.77c0,.16,3.051,11.467,2.879,12.882s.885,5.6.885,5.6l1.411-.381s-1.1-5.812-1.308-7.959S225.13,326.77,225.13,326.77Z" transform="translate(-166.144 -198.046)" opacity="0.1"/>
        <path id="Path_1289" data-name="Path 1289" d="M219.309,411.35c-.107.156-7.173,8.169-5.183,8.744S219.309,411.35,219.309,411.35Z" transform="translate(-159.118 -250.371)" opacity="0.1"/>
        <path id="Path_1290" data-name="Path 1290" d="M207.909,406c-.156.107-2.826,5.762-3.142,4.244s2.288,4.134,2.723-.053Z" transform="translate(-153.53 -247.061)" opacity="0.1"/>
        <path id="Path_1291" data-name="Path 1291" d="M248.43,286.124s2.921-1.785,6.586,2.792c0,0,2.669,1.525,3.455,1.884s1.674,10.106,1.674,10.106,1.728,4.195,1.258,6.6,1.361,10.678,1.361,10.678,3.051,14.873,2.933,15.288-3.089-4.66-3.051-7.173-2.513-10.365-2.879-10.838-2.879-13.927-2.879-13.927-2.04-5.72-3.352-7.593-2.929-5.446-3.611-6.075a6.894,6.894,0,0,0-1.625-1.045Z" transform="translate(-180.478 -172.688)" opacity="0.1"/>
        <path id="Path_1292" data-name="Path 1292" d="M248.385,286.126s3.272-1.777,6.937,2.776c0,0,2.669,1.525,3.455,1.884s1.678,10.106,1.678,10.106,1.728,4.195,1.255,6.6,1.361,10.678,1.361,10.678,3.051,14.873,2.933,15.288-3.089-4.66-3.051-7.173-2.513-10.365-2.879-10.838-2.883-13.927-2.883-13.927-2.04-5.72-3.348-7.593-2.933-5.446-3.615-6.075a6.485,6.485,0,0,0-1.937-1.045Z" transform="translate(-180.472 -172.69)" fill="#192534"/>
        <path id="Path_1293" data-name="Path 1293" d="M286.23,368.231s6.231-4.081,9.24-2.067,7.932,4.87,3.089,6.937-11.543,1.678-11.543,1.678Z" transform="translate(-203.943 -222.072)" fill="#a0616a"/>
        <path id="Path_1294" data-name="Path 1294" d="M265.145,469.314c-.931,1.994-1.693,12-2.216,15.174-.744-1.274-1.644-2.8-1.949-3.276a42.863,42.863,0,0,1-1.831-4.668c.591-1.438,2.231-5.56,2.231-7.074,0-1.846,2.986-4.161,2.986-4.161A3.463,3.463,0,0,1,265.145,469.314Z" transform="translate(-187.19 -283.753)" opacity="0.1"/>
        <path id="Path_1295" data-name="Path 1295" d="M244.511,234.554a2.356,2.356,0,0,1-.465.195,2.9,2.9,0,0,1-2.113-.694c-.656-.4-1.556-.69-2.12-.175-.74.667-.206,2.1-.965,2.75-.484.412-1.247.271-1.785.61a2.544,2.544,0,0,0-.831,1.712c-.137.641-.4,1.361-1.03,1.548s-1.2-.221-1.819-.2a.555.555,0,0,1-.381-.072.408.408,0,0,1-.061-.286,6.06,6.06,0,0,0-.2-2.288,2.166,2.166,0,0,0-1.594-1.491c-1.106-.172-2.033.793-2.669,1.7a28.1,28.1,0,0,0-1.857,2.99c-.027.053-.057.126-.091.21a9.583,9.583,0,1,1,17.981-6.51Z" transform="translate(-166.507 -136.704)" opacity="0.1"/>
        <path id="Path_1296" data-name="Path 1296" d="M224.861,228.9c.648-.908,1.575-1.872,2.669-1.7a2.174,2.174,0,0,1,1.594,1.491,6.061,6.061,0,0,1,.2,2.288.381.381,0,0,0,.065.286c.084.091.233.076.358.072.614-.023,1.228.381,1.819.2s.892-.911,1.03-1.552a2.488,2.488,0,0,1,.831-1.708c.553-.347,1.3-.2,1.785-.61.763-.648.221-2.082.961-2.753.568-.511,1.472-.217,2.124.179a2.9,2.9,0,0,0,2.113.694,7.353,7.353,0,0,0,.717-.305c1.163-.442,2.669.309,3.63-.488a2.8,2.8,0,0,0,.725-1.255,8.008,8.008,0,0,0,.53-2,2.67,2.67,0,0,0-.534-1.949c-.622-.736-1.674-.919-2.471-1.461a6.1,6.1,0,0,1-1.579-1.861,6.918,6.918,0,0,0-1.525-1.907,2.23,2.23,0,0,0-2.288-.362,2.6,2.6,0,0,1-.763.358,1.525,1.525,0,0,1-.831-.229c-2.727-1.281-5.9-1.056-8.882-.675a11.593,11.593,0,0,0-3.5.847,4.2,4.2,0,0,0-2.361,2.586c-.244.923-.057,1.907-.351,2.833-.2.618-.606,1.144-.839,1.75-.637,1.655.126,3.474.45,5.221.351,1.907.172,3.97.984,5.77.16.355.336.976.736.74.3-.172.583-1.178.763-1.491A28.718,28.718,0,0,1,224.861,228.9Z" transform="translate(-162.874 -127.878)" fill="#192534"/>
        <path id="Path_1297" data-name="Path 1297" d="M185.495,319.968,184.08,324s3.352,12.463,4.923,15.079,3.875,5.972,3.875,5.972a14.354,14.354,0,0,0,8.39,1.045c4.5-.889,17.645-3.245,17.645-3.245a1.749,1.749,0,0,0,1.678-.629c.576-.839,3.558-1.255,3.558-1.255s3.455-5.026-.786-7.124c0,0-.522,1.144-2.772.381s-2.933.625-2.933.625a23.754,23.754,0,0,1-5.72.473c-2.056-.263-7.12-.381-7.627-.786a.671.671,0,0,0-.946.053,5.772,5.772,0,0,1-1.674-.942c-.419-.469-1,.522-1,.522s-.732-.419-.522-.942-.683-2.513-.683-2.513a5.144,5.144,0,0,1-.156-2.357c.263-1.049-1.308-4.816-1.308-4.816a6.575,6.575,0,0,1,.21-1.888c.263-.942-1.991-2.826-1.991-2.826s-2.2-10.678-6.864-7.173A9.136,9.136,0,0,0,185.495,319.968Z" transform="translate(-140.749 -188.258)" opacity="0.1"/>
        <path id="Path_1298" data-name="Path 1298" d="M184.711,319.968,183.3,324s3.348,12.463,4.919,15.079,3.875,5.972,3.875,5.972a14.365,14.365,0,0,0,8.39,1.045c4.5-.889,17.645-3.245,17.645-3.245a1.744,1.744,0,0,0,1.674-.629c.576-.839,3.562-1.255,3.562-1.255s3.455-5.026-.786-7.124c0,0-.522,1.144-2.776.381s-2.933.625-2.933.625a23.754,23.754,0,0,1-5.72.473c-2.055-.263-7.12-.381-7.646-.786a.667.667,0,0,0-.942.053,5.77,5.77,0,0,1-1.674-.942c-.419-.469-1,.522-1,.522s-.732-.419-.522-.942-.683-2.513-.683-2.513a5.087,5.087,0,0,1-.156-2.357c.263-1.049-1.308-4.817-1.308-4.817a6.575,6.575,0,0,1,.21-1.888c.259-.942-1.991-2.826-1.991-2.826s-2.2-10.678-6.864-7.173A9.105,9.105,0,0,0,184.711,319.968Z" transform="translate(-140.266 -188.258)" fill="#192534"/>
        <path id="Path_1299" data-name="Path 1299" d="M274.787,378.81c-.053.381-1.205,1.834-.786,2.094s1.1.107.469.942-.576,2.1-.156,1.937,1.1-2.04,1.1-2.772A8.291,8.291,0,0,0,274.787,378.81Z" transform="translate(-196.321 -230.24)" opacity="0.1"/>
        <path id="Path_1300" data-name="Path 1300" d="M229.646,376.61s-.317,3.665-2.879,4.714S229.646,376.61,229.646,376.61Z" transform="translate(-166.733 -228.879)" opacity="0.1"/>
        <path id="Path_1301" data-name="Path 1301" d="M217.368,373.32c-.156.053-3.665,1.937-2.094,3.051S217.368,373.32,217.368,373.32Z" transform="translate(-159.797 -226.844)" opacity="0.1"/>
        <path id="Path_1302" data-name="Path 1302" d="M214.775,366.45s-5.129,1.049-3.4,1.937S214.775,366.45,214.775,366.45Z" transform="translate(-157.413 -222.594)" opacity="0.1"/>
        <g id="Group_2358" data-name="Group 2358" transform="translate(56.966 93.083)" opacity="0.1">
          <path id="Path_1303" data-name="Path 1303" d="M229.13,242.82a2.178,2.178,0,0,0-1.594-1.495c-1.106-.168-2.033.8-2.669,1.7a28.72,28.72,0,0,0-1.857,2.99c-.168.313-.454,1.316-.763,1.491-.381.233-.576-.381-.736-.74-.812-1.8-.633-3.867-.984-5.774a32.869,32.869,0,0,1-.675-3.367,16.152,16.152,0,0,0,.675,4.195c.351,1.907.172,3.97.984,5.77.16.355.336.976.736.74.3-.172.583-1.175.763-1.487a27.945,27.945,0,0,1,1.846-2.975c.648-.911,1.575-1.876,2.669-1.7a2.174,2.174,0,0,1,1.594,1.491,4.138,4.138,0,0,1,.21,1.178A5.412,5.412,0,0,0,229.13,242.82Z" transform="translate(-219.833 -235.983)"/>
          <path id="Path_1304" data-name="Path 1304" d="M260.879,235.175a2.814,2.814,0,0,1-.725,1.258c-.957.8-2.467.046-3.63.488-.244.092-.465.236-.717.305a2.92,2.92,0,0,1-2.113-.7c-.656-.4-1.556-.69-2.124-.175-.74.671-.2,2.105-.961,2.753-.484.408-1.247.271-1.785.606a2.545,2.545,0,0,0-.831,1.712c-.137.637-.4,1.365-1.03,1.552s-1.205-.225-1.819-.2c-.126,0-.275.023-.358-.072a.224.224,0,0,1-.046-.076c0,.21,0,.419-.019.629a.381.381,0,0,0,.065.286c.084.091.233.076.358.072.614-.023,1.228.381,1.819.2s.892-.915,1.03-1.552a2.5,2.5,0,0,1,.831-1.712c.553-.347,1.3-.2,1.785-.61.763-.645.221-2.082.961-2.75.568-.515,1.472-.221,2.124.175a2.9,2.9,0,0,0,2.113.694,7.337,7.337,0,0,0,.717-.3c1.163-.446,2.669.309,3.63-.492a2.78,2.78,0,0,0,.725-1.255,8.01,8.01,0,0,0,.53-2,3.6,3.6,0,0,0,0-.7A8.623,8.623,0,0,1,260.879,235.175Z" transform="translate(-235.227 -233.31)"/>
        </g>
      </g>
    </g>
  </g>
  <g id="Group_2364" data-name="Group 2364" transform="translate(145)">
    <path id="Path_1222-2" data-name="Path 1222" d="M699.471,571.209H615.458A11.625,11.625,0,0,1,603.846,559.6V490.611A11.625,11.625,0,0,1,615.458,479h84.013a11.625,11.625,0,0,1,11.611,11.612V559.6A11.625,11.625,0,0,1,699.471,571.209Zm-84.013-90.843a10.257,10.257,0,0,0-10.245,10.245V559.6a10.257,10.257,0,0,0,10.245,10.245h84.013A10.257,10.257,0,0,0,709.716,559.6V490.611a10.257,10.257,0,0,0-10.245-10.245Z" transform="translate(-311.847 -234.933)" fill="#3f3d56"/>
    <g id="Mask_Group_22-2" data-name="Mask Group 22" transform="translate(0 -2)" clip-path="url(#clip-path)">
      <g id="Group_2365" data-name="Group 2365" transform="translate(-96.764 23.582)">
        <path id="Path_1253" data-name="Path 1253" d="M843.4,522.837s-11.317-5.538-9.142-1.324,9.142,4.69,9.142,4.69Z" transform="translate(-416.318 -297.825)" fill="#ffc1c7"/>
        <path id="Path_1254" data-name="Path 1254" d="M719.362,450.46l-.362.723,8.547,4.453.362-.72Z" transform="translate(-303.236 -229.422)" fill="#192534"/>
        <path id="Path_1255" data-name="Path 1255" d="M872.689,529.089s-.723,1.808-3.491.723a12.914,12.914,0,0,0-4.937-.962s-1.805,3.61,0,4.934,9.39,3.613,9.632,2.289S872.689,529.089,872.689,529.089Z" transform="translate(-437.784 -304.319)" fill="#2196f3"/>
        <path id="Path_1256" data-name="Path 1256" d="M872.689,529.089s-.723,1.808-3.491.723a12.914,12.914,0,0,0-4.937-.962s-1.805,3.61,0,4.934,9.39,3.613,9.632,2.289S872.689,529.089,872.689,529.089Z" transform="translate(-437.784 -304.319)" fill="#2196f3" opacity="0.1"/>
        <circle id="Ellipse_111" data-name="Ellipse 111" cx="7.585" cy="7.585" r="7.585" transform="translate(432.917 188.592)" fill="#ff6584"/>
        <path id="Path_1257" data-name="Path 1257" d="M897.19,469.866v-1.324s1.805-2.286,3.852-.72-1.087,6.981-1.087,6.981l-2.273-1.324Z" transform="translate(-462.345 -259.482)" fill="#1e87da"/>
        <path id="Path_1258" data-name="Path 1258" d="M915.639,803.063l-2.289,2.651s4.094.962,4.214,1.087,4.214-.361,4.214-.361l-.367-4.219Z" transform="translate(-474.112 -503.373)" fill="#ffc1c7"/>
        <path id="Path_1259" data-name="Path 1259" d="M953.65,788.589l1.087,4.575,4.695-1.087,2.409-3.733a7.374,7.374,0,0,1-2.175-2.409C959.177,784.732,953.65,788.589,953.65,788.589Z" transform="translate(-503.456 -491.346)" fill="#ffc1c7"/>
        <path id="Path_1260" data-name="Path 1260" d="M929.093,652.167l-.481,7.824a6.065,6.065,0,0,0-.362,4.094c.6,2.286.362,11.918.362,11.918s-.843,13.242-1.087,14.085-1.087,1.2-.481,1.927c0,0-8.066,1.805-7.946-1.2a9.97,9.97,0,0,0,1.087-3.972c0-1.925.362-12.522.362-12.522l2.887-27.088Z" transform="translate(-478.295 -390.517)" fill="#3f3d56"/>
        <path id="Path_1261" data-name="Path 1261" d="M929.093,652.167l-.481,7.824a6.065,6.065,0,0,0-.362,4.094c.6,2.286.362,11.918.362,11.918s-.843,13.242-1.087,14.085-1.087,1.2-.481,1.927c0,0-8.066,1.805-7.946-1.2a9.97,9.97,0,0,0,1.087-3.972c0-1.925.362-12.522.362-12.522l2.887-27.088Z" transform="translate(-478.295 -390.517)" opacity="0.1"/>
        <path id="Path_1262" data-name="Path 1262" d="M900.625,592.157s-3.371,19.987-3.262,26.37a26.48,26.48,0,0,0,1.805,9.991L908.2,640.8a2.129,2.129,0,0,0,.239,2.047,4.771,4.771,0,0,1,.965,2.648c0,.72,1.443,1.2,1.925,2.175s1.805,3.733,4.937,1.566,4.214-3.009,3.61-4.695-1.925-2.767-2.044-3.61-2.759-2.9-3.121-5.32-6.5-12.28-6.5-12.28,6.139-12.28,6.38-14.566a7.111,7.111,0,0,1,.962-3.262s3.733-7.1,1.685-10.352S900.625,592.157,900.625,592.157Z" transform="translate(-462.469 -350.412)" fill="#3f3d56"/>
        <path id="Path_1263" data-name="Path 1263" d="M892.161,810.709s-3.262-.481-3.262-2.289l-4.456,2.528s-8.789.362-5.056,3.371,20.117-.962,20.117-.962-1.2-3.964-2.409-4.333A8.028,8.028,0,0,1,892.161,810.709Z" transform="translate(-448.709 -507.887)" fill="#3f3d56"/>
        <path id="Path_1264" data-name="Path 1264" d="M892.161,810.709s-3.262-.481-3.262-2.289l-4.456,2.528s-8.789.362-5.056,3.371,20.117-.962,20.117-.962-1.2-3.964-2.409-4.333A8.028,8.028,0,0,1,892.161,810.709Z" transform="translate(-448.709 -507.887)" opacity="0.1"/>
        <path id="Path_1265" data-name="Path 1265" d="M937.958,793.22s-3.5,4.937-6.622,3.613c0,0-1.816-1.851-2.471-.816s-2.1,3.934-3.667,4.3-7.1,2.175-1.685,3.613,15.651-3.371,16.613-5.3S937.958,793.22,937.958,793.22Z" transform="translate(-479.818 -496.819)" fill="#3f3d56"/>
        <path id="Path_1266" data-name="Path 1266" d="M896.528,446.641a9.2,9.2,0,0,1,1,1.846,2.991,2.991,0,0,1,.049,2.061c-.117.307-.3.584-.427.889a2.991,2.991,0,0,0,.065,2.207,5.439,5.439,0,0,0,1.313,1.824,1.131,1.131,0,0,0,.6.364.979.979,0,0,0,.835-.451,5.786,5.786,0,0,0,.837-2.466,3.2,3.2,0,0,1,1.261-2.218,3.564,3.564,0,0,1,1.338-.356l1.71-.22a1.506,1.506,0,0,0,.881-.313c.345-.334,1.229.729.943.343a17.052,17.052,0,0,0-2.1-2.5,2.618,2.618,0,0,1-1.1-.9,2.837,2.837,0,0,1-.272-1.34,5.062,5.062,0,0,0-.579-2.506,3.624,3.624,0,0,0-2.189-1.465,10.752,10.752,0,0,0-2.678-.242,4.348,4.348,0,0,0-1.677.207,1.887,1.887,0,0,0-.851.658,2.584,2.584,0,0,0-.544,2.131A16.209,16.209,0,0,0,896.528,446.641Z" transform="translate(-460.648 -240.488)" fill="#ffc1c7"/>
        <circle id="Ellipse_112" data-name="Ellipse 112" cx="6.981" cy="6.981" r="6.981" transform="translate(431.414 191.425)" fill="#ffc1c7"/>
        <path id="Path_1267" data-name="Path 1267" d="M908.052,471.247a4.66,4.66,0,0,0-4.7-2.629c-2,.217-4.189.748-4.448,2.028-.481,2.409-1.324,5.057-1.324,3.009s-.046-3.5-.046-3.5-1.879-1.558-2.24-.6a28.588,28.588,0,0,0-.6,7.34c.12,2.645.242,10.833.242,10.833s.242,8.188.962,10.355a10.64,10.64,0,0,1,.362,4.453s-.962.965,1.324,1.324,3.493-1.686,7.223.843,11.921,3.852,12.28,2.175-2.286-8.669-1.563-13.845S908.052,471.247,908.052,471.247Z" transform="translate(-460.506 -260.442)" fill="#2196f3"/>
        <path id="Path_1268" data-name="Path 1268" d="M906.971,590.85s-1.805,2.887-2.406,3.009-.843,1.324.6.72.962-.6.962-.6-1.2,1.927.843,2.286,3.132.606,3.132-.481-.242-3.972-.242-3.972Z" transform="translate(-467.372 -349.464)" fill="#ffc1c7"/>
        <path id="Path_1269" data-name="Path 1269" d="M911.712,475.289a7.446,7.446,0,0,0-.843,7.465c1.805,4.333,6.019,11.918,6.019,11.918s1.925,1.087,1.087,1.925-.962.6-1.563,1.324-4.817,6.022-4.817,6.022-2.406,1.443-1.685,3.129,3.613,2.409,3.613,2.409a2.074,2.074,0,0,1,2.175-1.324c1.685.12,4.695-2.409,4.695-2.409s4.695-8.066,5.165-8.909,1.087-1.087.242-3.262-6.992-17.564-9.634-18.288A7.531,7.531,0,0,0,911.712,475.289Z" transform="translate(-471.509 -265.085)" opacity="0.1"/>
        <path id="Path_1270" data-name="Path 1270" d="M913.48,474.383a7.454,7.454,0,0,0-.843,7.465c1.805,4.333,6.019,11.918,6.019,11.918s1.927,1.087,1.087,1.927-.965.6-1.566,1.324-4.815,6.019-4.815,6.019-2.409,1.444-1.685,3.129,3.607,2.4,3.607,2.4a2.077,2.077,0,0,1,2.175-1.324c1.685.12,4.695-2.409,4.695-2.409s4.695-8.066,5.179-8.909,1.087-1.087.239-3.249-6.981-17.578-9.632-18.3A7.508,7.508,0,0,0,913.48,474.383Z" transform="translate(-472.796 -264.421)" fill="#2196f3"/>
        <circle id="Ellipse_113" data-name="Ellipse 113" cx="7.283" cy="7.283" r="7.283" transform="translate(435.087 189.437)" fill="#ff6584"/>
        <ellipse id="Ellipse_114" data-name="Ellipse 114" cx="2.349" cy="3.733" rx="2.349" ry="3.733" transform="translate(442.927 189.213) rotate(-42.44)" fill="#ff6584"/>
        <ellipse id="Ellipse_115" data-name="Ellipse 115" cx="5.176" cy="2.409" rx="5.176" ry="2.409" transform="translate(430.512 190.4)" fill="#ff6584"/>
        <ellipse id="Ellipse_116" data-name="Ellipse 116" cx="1.085" cy="1.626" rx="1.085" ry="1.626" transform="translate(435.688 198.346)" fill="#ffc1c7"/>
      </g>
    </g>
  </g>
  <g id="Group_2362" data-name="Group 2362" transform="translate(0 -33)">
    <path id="Path_1305" data-name="Path 1305" d="M699.471,383.209H615.458A11.625,11.625,0,0,1,603.846,371.6V302.611A11.625,11.625,0,0,1,615.458,291h84.013a11.625,11.625,0,0,1,11.611,11.611V371.6a11.625,11.625,0,0,1-11.611,11.611Zm-84.013-90.843a10.257,10.257,0,0,0-10.245,10.245V371.6a10.257,10.257,0,0,0,10.245,10.245h84.013A10.257,10.257,0,0,0,709.716,371.6V302.611a10.257,10.257,0,0,0-10.245-10.245Z" transform="translate(-166.847 -142.933)" fill="#3f3d56"/>
    <g id="Mask_Group_23" data-name="Mask Group 23" transform="translate(0 -37)" clip-path="url(#clip-path-3)">
      <g id="Group_2361" data-name="Group 2361" transform="translate(-5)">
        <path id="Path_1241" data-name="Path 1241" d="M698.815,331.415c.286-.817.734-1.576.963-2.41a9.155,9.155,0,0,0,.063-3.45,2.942,2.942,0,0,0-.417-1.428c-.388-.531-1.068-.751-1.591-1.142-1.274-.957-1.451-2.727-1.9-4.247a10.244,10.244,0,0,0-3.327-5.012c-1-.814-2.425-1.448-3.553-.817-.477.266-.825.728-1.314.971a4.073,4.073,0,0,1-2.082.18,1.031,1.031,0,0,0-.331-.263,3.95,3.95,0,0,0-2.59.323,2.422,2.422,0,0,0-1.277,1.074,2.032,2.032,0,0,0-.14.4c-.086.343-.114.7-.22,1.045a2.953,2.953,0,0,1-.357.725c-.425.631-1.051,1.16-1.482,1.8a4.161,4.161,0,0,0-.48.971h0a8.433,8.433,0,0,0-.351,3.124,14.936,14.936,0,0,1-.117,4.241c-.108.426-.263.857-.391,1.268-.023.069-.049.143-.069.211l-.051.206c-.023.1-.046.2-.063.3h0c-.034.206-.054.414-.069.625v.314a5.246,5.246,0,0,1-.026.634,4.742,4.742,0,0,1-.126.934,4.117,4.117,0,0,1-.406.985h0c-.2.354-.428.688-.657,1.02l-.766,1.111a4.54,4.54,0,0,0-2.61.38,3.428,3.428,0,0,0-1.488,1.936.57.57,0,0,0-.174.1,3.138,3.138,0,0,0-.494,1.2v.014c-.337,1.225-.643,2.967-.743,3.356-.229.857-.408,1.751-.571,2.636-.325,1.814-.548,3.644-.857,5.461-.063.371-.471,2.83-.874,4.241a.34.34,0,0,1-.029.106c-.157.526-.308.883-.44.883h.4c-.072.169-.14.343-.2.517a10.834,10.834,0,0,0-.323,1.1.1.1,0,0,0,0,.023,21.678,21.678,0,0,0-.477,3.479,142.457,142.457,0,0,0-.057,20.477,10.458,10.458,0,0,0,.511,2.973,4.326,4.326,0,0,0,.8,1.339l.051.057c-.031.137-.06.268-.094.406Q666.6,392.1,664.683,398.3c-.028.088-.054.18-.086.268-.077.257-.157.517-.237.774-.049.166-.1.331-.146.5-.034.109-.063.217-.091.32a14.651,14.651,0,0,0-.46,2.285,15.09,15.09,0,0,0,.234,4.284H673c0-.063-.017-.123-.023-.186a8.436,8.436,0,0,1,.014-3.816,12.351,12.351,0,0,1,1.168-2.182c.857-1.477,1.337-3.142,2.116-4.647,1.142-2.2,2.887-4.115,3.693-6.426q.128-.366.223-.745a18.95,18.95,0,0,1,.654,5.049,63.192,63.192,0,0,0,2.13,12.952h9.188c-.151-2.4-.366-4.812-.5-7.208a18.686,18.686,0,0,1,.077-3.935,20.327,20.327,0,0,1,.72-2.8,51.357,51.357,0,0,0,2.476-10.124c.343-3.461.588-8.351-1.316-11.275a.975.975,0,0,0-.123-.157,2.625,2.625,0,0,0,0-.791c-.517-4.761-3.242-9.33-2.453-14.057a17.967,17.967,0,0,1,1.117-3.61,64.939,64.939,0,0,0,3.159-8.976,13.744,13.744,0,0,0,.668-2.633,14.628,14.628,0,0,0,.217-2.4,5.612,5.612,0,0,0-.077-.911,15.225,15.225,0,0,0,2.893,1.111,2.5,2.5,0,0,0,.26.023.382.382,0,0,1-.034-.057,1.255,1.255,0,0,1-.191-.623,1.919,1.919,0,0,0,.543.043h0a2.077,2.077,0,0,0,1.008-.311A6.343,6.343,0,0,1,698.815,331.415Zm-27.7,42.7c-.154.326-.286.654-.428.991v-.037a7.877,7.877,0,0,1-.266-4.135c.023-.086.043-.171.063-.254s.057-.217.086-.328a3.033,3.033,0,0,0,1.511,2c-.083.134-.166.266-.246.4a15.26,15.26,0,0,0-.734,1.365Zm1.277-9.445c-.257.508-.571.985-.882,1.474a61.6,61.6,0,0,0,.943-7.62h0c.026-.414.046-.831.063-1.245a17.709,17.709,0,0,1,.4,2.907,9.13,9.13,0,0,1-.231,3.818,4.991,4.991,0,0,1-.308.665Z" transform="translate(-186.506 -117.585)" fill="url(#linear-gradient)"/>
        <path id="Path_1242" data-name="Path 1242" d="M709.165,319.315a2.379,2.379,0,0,0-1.259,1.065,10.221,10.221,0,0,0-.351,1.428c-.308.994-1.234,1.648-1.808,2.513a6.974,6.974,0,0,0-.82,4.081,15.63,15.63,0,0,1-.117,4.215c-.166.665-.451,1.3-.571,1.979-.14.822-.023,1.682-.226,2.49a6.429,6.429,0,0,1-1.048,2l-1.825,2.673a20.9,20.9,0,0,0,2.41-.728,4.329,4.329,0,0,1-1.3,1.973l1.32-1.6a3.755,3.755,0,0,1,.982-.931,4.97,4.97,0,0,1,1.6-.428,3.748,3.748,0,0,0,2.608-1.691c.683-1.254.246-2.83.628-4.207a15.993,15.993,0,0,1,1.442-2.762c1.08-2.1,1.014-4.569,1.351-6.9a21.444,21.444,0,0,0,.371-2.979c0-.74-.074-2.148-.857-2.522A3.854,3.854,0,0,0,709.165,319.315Z" transform="translate(-213.321 -122.022)" fill="#192534"/>
        <path id="Path_1243" data-name="Path 1243" d="M694.056,525.306a52.545,52.545,0,0,1-2.433,10.064,19.636,19.636,0,0,0-.708,2.787,18.86,18.86,0,0,0-.077,3.913c.128,2.313.331,4.632.477,6.948h-9.076a63.7,63.7,0,0,1-2.036-12.655,21.607,21.607,0,0,0-.517-4.6c-.037-.14-.08-.286-.126-.42-.64,2.636-2.619,4.712-3.847,7.14-.768,1.505-1.245,3.142-2.079,4.618a11.757,11.757,0,0,0-1.142,2.168,8.4,8.4,0,0,0-.017,3.761h-8.962a14.743,14.743,0,0,1-.2-4.038,16.152,16.152,0,0,1,.62-2.856c.046-.169.1-.334.146-.5.08-.257.16-.517.237-.774q1.939-6.349,3.381-12.852c.029-.134.06-.286.089-.408q.246-1.114.474-2.231a46.068,46.068,0,0,1,1.971-7.608c.06-.146.117-.286.18-.437.134-.323.286-.643.437-.954a14.219,14.219,0,0,1,.748-1.334,12.445,12.445,0,0,1,.842-1.185c5.018-.434,10.227-2.939,15.137-1.776a7.189,7.189,0,0,1,2.3.943c.84.543,2.139.226,2.776.92a1.357,1.357,0,0,1,.12.157C694.633,517,694.393,521.864,694.056,525.306Z" transform="translate(-186.257 -259.837)" fill="#192534"/>
        <path id="Path_1244" data-name="Path 1244" d="M707.532,368.391c-.109,1.228-.366,2.673-1.482,3.187a7.523,7.523,0,0,1-2.053.286,4.3,4.3,0,0,0-2.962,2.373,10.67,10.67,0,0,0-.945,3.8,7.3,7.3,0,0,0,.665,4.784,5.512,5.512,0,0,0,3.265,2.139,9.1,9.1,0,0,0,7.6-1.411,17.085,17.085,0,0,0,2.8-2.765c1.862-2.168,3.739-4.544,4.118-7.377a.924.924,0,0,0-.223-.9.972.972,0,0,0-.6-.117l-1.788.031a1.241,1.241,0,0,1-1.556-1.528l.137-5.178a.731.731,0,0,0-.117-.523.683.683,0,0,0-.411-.177,28.931,28.931,0,0,1-2.976-.268c-.917-.251-2.353-1.305-3.027-.223C707.415,365.458,707.626,367.348,707.532,368.391Z" transform="translate(-212.495 -154.298)" fill="#ffc1c7"/>
        <path id="Path_1245" data-name="Path 1245" d="M707.532,368.391c-.109,1.228-.366,2.673-1.482,3.187a7.523,7.523,0,0,1-2.053.286,4.3,4.3,0,0,0-2.962,2.373,10.67,10.67,0,0,0-.945,3.8,7.3,7.3,0,0,0,.665,4.784,5.512,5.512,0,0,0,3.265,2.139,9.1,9.1,0,0,0,7.6-1.411,17.085,17.085,0,0,0,2.8-2.765c1.862-2.168,3.739-4.544,4.118-7.377a.924.924,0,0,0-.223-.9.972.972,0,0,0-.6-.117l-1.788.031a1.241,1.241,0,0,1-1.556-1.528l.137-5.178a.731.731,0,0,0-.117-.523.683.683,0,0,0-.411-.177,28.931,28.931,0,0,1-2.976-.268c-.917-.251-2.353-1.305-3.027-.223C707.415,365.458,707.626,367.348,707.532,368.391Z" transform="translate(-212.495 -154.298)" opacity="0.1"/>
        <circle id="Ellipse_110" data-name="Ellipse 110" cx="6.826" cy="6.826" r="6.826" transform="translate(492.709 200.108)" fill="#ffc1c7"/>
        <path id="Path_1246" data-name="Path 1246" d="M695.335,396.563a3.11,3.11,0,0,1-2.882-1.254,3.846,3.846,0,0,1-.234-2.219l.4-4.2a5.268,5.268,0,0,0-3.159.323c-1.24.7-1.688,2.262-1.828,3.681-.26,2.665.163,5.355.017,8.028-.123,2.251-.64,4.57.02,6.711.286.9.748,1.714,1.048,2.613a14.559,14.559,0,0,1,.571,3.516,9.164,9.164,0,0,1-.225,3.8,22.456,22.456,0,0,1-1.548,2.807c-.814,1.565-.988,3.673.234,4.944,1.117,1.162,2.97,1.211,4.538.857a27.557,27.557,0,0,1,4.681-1.142c2.839-.12,5.369,1.714,8.148,2.319a2.469,2.469,0,0,0,1.142.04,2.78,2.78,0,0,0,.914-.5l1.519-1.091a2.108,2.108,0,0,0,.734-.745,1.95,1.95,0,0,0,.094-1.065c-.508-4.732-3.187-9.279-2.413-13.977a18.249,18.249,0,0,1,1.1-3.587c1.928-4.929,4.238-10.053,3.49-15.294a5.82,5.82,0,0,0-1.305-3.2,2.774,2.774,0,0,0-3.187-.737c-1.037.548-1.411,1.771-1.859,2.836a13.049,13.049,0,0,1-4.064,5.221,5.1,5.1,0,0,1-2.647,1.342C697.557,396.614,696.432,396.543,695.335,396.563Z" transform="translate(-203.124 -170.651)" fill="#f2f2f2"/>
        <path id="Path_1247" data-name="Path 1247" d="M675.48,455.344c-1.654,1.836-1.979,4.481-2.162,6.948a143.724,143.724,0,0,0-.054,20.357,10.342,10.342,0,0,0,.506,2.956,3.677,3.677,0,0,0,1.945,2.185,1.344,1.344,0,0,0,1.714-.408c.248-.537-.12-1.142-.4-1.654a6.018,6.018,0,0,1-.6-3.913,1.818,1.818,0,0,1,.554,1.105l.534,2.285c.734-.108,1.008-1,1.125-1.733a7.148,7.148,0,0,0-.112-3.964c-.285-.657-.757-1.217-1.039-1.871a8.185,8.185,0,0,1-.537-5.275,61.718,61.718,0,0,0,2-17.992A7.647,7.647,0,0,1,675.48,455.344Z" transform="translate(-193.167 -218.828)" fill="#ffc1c7"/>
        <path id="Path_1248" data-name="Path 1248" d="M676.39,419.462a25.179,25.179,0,0,1,6.038.8,13.081,13.081,0,0,0,0-3.921l-.857-8.973c-.063-.668.057-6.769-1.228-5.692-.474.4-1.071,3.967-1.22,4.541-.223.857-.4,1.739-.571,2.619-.32,1.8-.54,3.624-.857,5.426C677.621,414.784,676.85,419.465,676.39,419.462Z" transform="translate(-195.639 -181.09)" fill="#f2f2f2"/>
        <path id="Path_1249" data-name="Path 1249" d="M733.02,317.754a1.176,1.176,0,0,1,.14-.611,1.033,1.033,0,0,1,.731-.388c.985-.151,2.065.246,2.956-.206.483-.243.823-.7,1.294-.965,1.108-.625,2.508,0,3.49.814a10.164,10.164,0,0,1,3.273,4.984c.434,1.508.611,3.27,1.862,4.221.517.394,1.185.611,1.562,1.142a2.916,2.916,0,0,1,.414,1.428,9.21,9.21,0,0,1-.063,3.427c-.226.828-.671,1.582-.945,2.4a6.352,6.352,0,0,0,1.734,6.617,2.039,2.039,0,0,1-1.528.266,1.317,1.317,0,0,0,.223.674c-1.6-.049-2.987-1.605-4.549-1.265-1.191.257-1.856,1.491-2.747,2.325a4.123,4.123,0,0,1-4.367.891,3.177,3.177,0,0,1-1.714-3.907c.694-1.654,2.839-2.3,3.584-3.938.571-1.265.148-2.739.271-4.124a19.875,19.875,0,0,1,.94-3.444,4.278,4.278,0,0,0-.228-3.461,5.638,5.638,0,0,0-3.216-1.868C733.44,321.866,732.917,320.5,733.02,317.754Z" transform="translate(-236.087 -119.497)" fill="#192534"/>
        <path id="Path_1250" data-name="Path 1250" d="M726.418,382.676a5.242,5.242,0,0,1-.043-2.876c.637-1.7,2.725-2.225,4.17-3.316a5.644,5.644,0,0,0,1.856-2.473c.263-.691.286-1.636-.348-2a1.542,1.542,0,0,0-.805-.14,10.112,10.112,0,0,0-6.037,2.722,8.208,8.208,0,0,0-2.459,3.019,10.045,10.045,0,0,0-.571,2.713l-.351,3.062a46.733,46.733,0,0,0-.408,5.281,23.791,23.791,0,0,0,.189,3.024,4.4,4.4,0,0,0,.643,2.033c.78,1.088,2.285,1.331,3.616,1.368A6.239,6.239,0,0,0,727.38,395c2.222-.483,3.91-3.6,2.228-5.523-.717-.817-1.791-.837-2.2-1.959A33.536,33.536,0,0,1,726.418,382.676Z" transform="translate(-227.808 -159.887)" fill="#ffc1c7"/>
        <path id="Path_1251" data-name="Path 1251" d="M740.307,399.62l-1.756,2.87a1.289,1.289,0,0,0-.214.494,1.526,1.526,0,0,0,.451,1.008c1.514,2.065,1.142,4.909.674,7.425a13.474,13.474,0,0,0,9.268-10.915c.223-1.5.571-3.973-.754-4.949C744.767,393.2,741.812,397.167,740.307,399.62Z" transform="translate(-239.889 -176.297)" fill="#f2f2f2"/>
        <path id="Path_1252" data-name="Path 1252" d="M704.82,376.45a7.83,7.83,0,0,0,2.053-.286c1.117-.514,1.374-1.959,1.482-3.187,0-.111.017-.237.02-.368a9.96,9.96,0,0,0-1.3-1.142,6.5,6.5,0,0,0-1.328-.571l-1.217-.446a7.21,7.21,0,0,0-.286,1.014c-.14.823-.023,1.682-.225,2.49a6.432,6.432,0,0,1-1.048,2l-1.825,2.673c.331-.08.657-.169.985-.263A4.113,4.113,0,0,1,704.82,376.45Z" transform="translate(-213.328 -158.876)" fill="#192534"/>
      </g>
    </g>
  </g>
  <g id="Group_2366" data-name="Group 2366" transform="translate(-145 -33)">
    <path id="Path_1305-2" data-name="Path 1305" d="M699.471,383.209H615.458A11.625,11.625,0,0,1,603.846,371.6V302.611A11.625,11.625,0,0,1,615.458,291h84.013a11.625,11.625,0,0,1,11.611,11.611V371.6a11.625,11.625,0,0,1-11.611,11.611Zm-84.013-90.843a10.257,10.257,0,0,0-10.245,10.245V371.6a10.257,10.257,0,0,0,10.245,10.245h84.013A10.257,10.257,0,0,0,709.716,371.6V302.611a10.257,10.257,0,0,0-10.245-10.245Z" transform="translate(-166.847 -142.933)" fill="#3f3d56"/>
    <g id="Mask_Group_23-2" data-name="Mask Group 23" transform="translate(0 -37)" clip-path="url(#clip-path-3)">
      <g id="Group_2367" data-name="Group 2367" transform="translate(425.287 151.672)">
        <path id="Path_1314" data-name="Path 1314" d="M97.205,458.552l.351,3.157-3.157-.351V457.5Z" transform="translate(-47.97 -282.673)" fill="#ffb8b8"/>
        <path id="Path_1315" data-name="Path 1315" d="M195.75,458.552l-.351,3.157,3.157-.351V457.5Z" transform="translate(-113.541 -282.673)" fill="#ffb8b8"/>
        <path id="Path_1316" data-name="Path 1316" d="M191.994,466.474l-1.4,36.131s-4.56,27.01-3.508,27.712,0,4.56,0,4.56l5.963.7s0-2.806,1.4-3.859,14.382-50.513,14.382-50.513l13.33,47.707s-.351,2.806.7,2.806,1.4,3.859,1.4,3.859h5.963V531.72s1.754-.351.7-3.157-4.911-62.089-4.911-62.089Z" transform="translate(-143.11 -358.646)" fill="#2f2e41"/>
        <path id="Path_1317" data-name="Path 1317" d="M173.394,659.379s-1.754-1.052-2.456-.351-6.314,7.717-6.314,7.717-7.717,4.911-.7,6.314S176.2,667.8,176.551,667.1s-.351-6.314-.7-5.613-1.4.351-1.754,0A7.273,7.273,0,0,1,173.394,659.379Z" transform="translate(-126.264 -483.499)" fill="#2f2e41"/>
        <path id="Path_1318" data-name="Path 1318" d="M296.355,659.379s1.754-1.052,2.455-.351,6.314,7.717,6.314,7.717,7.717,4.911.7,6.314S293.549,667.8,293.2,667.1s.351-6.314.7-5.613,1.4.351,1.754,0A7.274,7.274,0,0,0,296.355,659.379Z" transform="translate(-212.042 -483.499)" fill="#2f2e41"/>
        <circle id="Ellipse_128" data-name="Ellipse 128" cx="7.191" cy="7.191" r="7.191" transform="translate(62.915 41.53)" fill="#ffb8b8"/>
        <path id="Path_1319" data-name="Path 1319" d="M146.451,108.851,145.4,119.725l8.419,1.754,2.1-12.979Z" transform="translate(-81.08 -56.096)" fill="#ffb8b8"/>
        <path id="Path_1320" data-name="Path 1320" d="M228.579,332.825s-2.1,4.56-9.822-.351l-14.382,47.005s19.293,11.576,31.571,2.806l-4.209-47.356Z" transform="translate(-154.438 -271.651)" fill="#2196f3"/>
        <path id="Path_1321" data-name="Path 1321" d="M213.81,316.527l-6.665-1.052-.7,4.56s-9.12,1.052-10.173,4.56l1.052,25.958s-3.157,5.613-.351,9.12c0,0-4.56,9.471-1.052,11.225,0,0,8.068-3.859,12.979-2.806,0,0,2.806-.7,2.806-2.806S213.81,316.527,213.81,316.527Z" transform="translate(-148.088 -260.615)" fill="#2f2e41"/>
        <path id="Path_1322" data-name="Path 1322" d="M270.511,320.474l3.859,1.052.351,4.911s9.471,5.963,9.822,9.471-7.016,20.345-7.016,20.345,2.806,4.911,1.754,8.068c0,0,4.56,9.12,1.754,11.576,0,0-5.262,1.4-5.963-.7s-7.016-26.309-4.209-37.885C270.862,337.312,268.055,322.579,270.511,320.474Z" transform="translate(-196.721 -263.861)" fill="#2f2e41"/>
        <path id="Path_1323" data-name="Path 1323" d="M261.7,342.472h-.132v-3.617a2.093,2.093,0,0,0-2.093-2.093h-7.663a2.093,2.093,0,0,0-2.093,2.093V358.7a2.093,2.093,0,0,0,2.093,2.093h7.663a2.093,2.093,0,0,0,2.093-2.093V345.047h.132Z" transform="translate(-183.875 -274.435)" fill="#3f3d56"/>
        <path id="Path_1324" data-name="Path 1324" d="M277.9,380.8s-2.806-9.12-7.016-6.314,2.806,10.523,2.806,10.523Z" transform="translate(-196.745 -298.575)" fill="#ffb8b8"/>
        <path id="Path_1325" data-name="Path 1325" d="M238.375,367.242s4.911-5.963,7.366-3.157-4.209,9.12-4.209,9.12Z" transform="translate(-176.512 -291.686)" fill="#ffb8b8"/>
        <path id="Path_1326" data-name="Path 1326" d="M188.092,340.453s-1.754-.351-2.806,2.806-4.911,15.084-4.911,17.188,1.4,10.524,9.12,9.12,16.838-11.225,16.838-11.225l-4.911-7.366L190.9,357.29Z" transform="translate(-138.857 -276.824)" fill="#2f2e41"/>
        <path id="Path_1327" data-name="Path 1327" d="M106.58,165.589l1.466,7.568,10.874-6.314L108.748,170.7l-2.243-5.564Z" transform="translate(-55.829 -92.866)" opacity="0.1"/>
        <path id="Path_1328" data-name="Path 1328" d="M194.9,180.859l1.4,1.052L197,177Z" transform="translate(-113.217 -100.567)" opacity="0.1"/>
        <path id="Path_1329" data-name="Path 1329" d="M201.875,409.422s10.3-2.8,15.149-8.943A20.32,20.32,0,0,1,201.875,409.422Z" transform="translate(-152.815 -315.801)" opacity="0.1"/>
        <path id="Path_1330" data-name="Path 1330" d="M275.875,407.974s2.17,10.618,7.75,10.922C283.625,418.9,276.927,420.953,275.875,407.974Z" transform="translate(-200.858 -320.667)" opacity="0.1"/>
        <path id="Path_1331" data-name="Path 1331" d="M287.6,360.474s1.052.7,1.754,3.859,5.262,15.084,3.508,17.89-4.56,9.12-10.524,4.911l-5.963-10.874,5.963-5.613,2.456,1.754Z" transform="translate(-201.182 -289.83)" fill="#2f2e41"/>
        <path id="Path_1332" data-name="Path 1332" d="M237.443,278.837s-6.031-9.774.393-10.283a16.377,16.377,0,0,0,6.16-1.679c2.129-1.084,4.81-1.907,6.236-.239a10.6,10.6,0,0,0,2.156,2c1.253.831,2.7,2.178,1.9,3.623l-1.316,2.369-1.842,4.738c.429-2.043.44-3.759-.658-4.606,0,0-6.125,2.607-9.212-2.106C237.8,270.059,236.7,278.22,237.443,278.837Z" transform="translate(-174.239 -228.292)" fill="#2f2e41"/>
        <circle id="Ellipse_129" data-name="Ellipse 129" cx="1.754" cy="1.754" r="1.754" transform="translate(70.107 67.663)" fill="#2196f3"/>
      </g>
    </g>
  </g>
</svg>
